<?xml version="1.0" encoding="UTF-8" standalone="no"?>
<!DOCTYPE svg PUBLIC "-//W3C//DTD SVG 20010904//EN"
              "http://www.w3.org/TR/2001/REC-SVG-20010904/DTD/svg10.dtd">

<svg xmlns="http://www.w3.org/2000/svg"
     width="6.66667in" height="6.66667in"
     viewBox="0 0 2000 2000">
  <path id="Selection"
        fill="none" stroke="black" stroke-width="1"
        d="M 1439.00,1269.00
           C 1439.00,1269.00 1111.00,1597.00 1111.00,1597.00
             1111.00,1597.00 1029.00,1679.00 1029.00,1679.00
             1029.00,1679.00 1009.00,1699.00 1009.00,1699.00
             1007.04,1700.95 1002.84,1705.80 1000.00,1705.80
             996.93,1705.80 991.21,1699.21 989.00,1697.00
             989.00,1697.00 964.00,1672.00 964.00,1672.00
             964.00,1672.00 861.00,1569.00 861.00,1569.00
             861.00,1569.00 449.00,1157.00 449.00,1157.00
             449.00,1157.00 330.00,1038.00 330.00,1038.00
             330.00,1038.00 302.00,1010.00 302.00,1010.00
             299.23,1007.23 292.66,1002.38 294.74,998.00
             295.85,995.69 307.37,984.63 310.00,982.00
             310.00,982.00 343.00,949.00 343.00,949.00
             343.00,949.00 456.00,836.00 456.00,836.00
             456.00,836.00 836.00,456.00 836.00,456.00
             836.00,456.00 960.00,332.00 960.00,332.00
             960.00,332.00 989.00,303.00 989.00,303.00
             991.48,300.52 997.26,293.40 1001.00,294.34
             1003.27,294.90 1007.26,299.26 1009.00,301.00
             1009.00,301.00 1027.00,319.00 1027.00,319.00
             1027.00,319.00 1092.00,384.00 1092.00,384.00
             1092.00,384.00 1335.00,627.00 1335.00,627.00
             1335.00,627.00 1406.00,698.00 1406.00,698.00
             1406.00,698.00 1425.00,717.00 1425.00,717.00
             1426.88,718.88 1432.07,723.63 1432.66,726.00
             1433.68,730.05 1422.91,739.09 1420.00,742.00
             1420.00,742.00 1375.00,786.00 1375.00,786.00
             1375.00,786.00 1095.00,506.00 1095.00,506.00
             1095.00,506.00 1025.00,436.00 1025.00,436.00
             1025.00,436.00 1008.00,419.00 1008.00,419.00
             1006.23,417.24 1002.60,413.04 1000.00,413.04
             997.27,413.04 992.90,418.10 991.00,420.00
             991.00,420.00 970.00,441.00 970.00,441.00
             970.00,441.00 884.00,527.00 884.00,527.00
             884.00,527.00 540.00,871.00 540.00,871.00
             540.00,871.00 440.00,971.00 440.00,971.00
             440.00,971.00 417.00,994.00 417.00,994.00
             414.50,996.51 409.64,1000.02 411.63,1004.00
             412.64,1006.02 422.69,1015.69 425.00,1018.00
             425.00,1018.00 453.00,1046.00 453.00,1046.00
             453.00,1046.00 547.00,1140.00 547.00,1140.00
             547.00,1140.00 860.00,1453.00 860.00,1453.00
             860.00,1453.00 964.00,1557.00 964.00,1557.00
             964.00,1557.00 990.00,1583.00 990.00,1583.00
             992.03,1585.03 997.15,1590.96 1000.00,1590.96
             1002.42,1590.96 1005.37,1587.60 1007.00,1586.00
             1007.00,1586.00 1022.00,1571.00 1022.00,1571.00
             1022.00,1571.00 1084.00,1509.00 1084.00,1509.00
             1084.00,1509.00 1306.00,1287.00 1306.00,1287.00
             1306.00,1287.00 1362.00,1231.00 1362.00,1231.00
             1362.00,1231.00 1375.00,1218.00 1375.00,1218.00
             1376.67,1216.37 1379.51,1213.20 1382.00,1213.20
             1385.38,1213.20 1394.32,1223.32 1397.00,1226.00
             1397.00,1226.00 1439.00,1269.00 1439.00,1269.00 Z" />
</svg>
