<?xml version="1.0" encoding="UTF-8" standalone="no"?>
<!DOCTYPE svg PUBLIC "-//W3C//DTD SVG 20010904//EN"
              "http://www.w3.org/TR/2001/REC-SVG-20010904/DTD/svg10.dtd">

<svg xmlns="http://www.w3.org/2000/svg"
     width="55.5556in" height="11.1111in"
     viewBox="0 0 5000 1000">
  <path id="Selection"
        fill="none" stroke="black" stroke-width="1"
        d="M 3686.00,120.00
           C 3686.00,120.00 3733.00,120.00 3733.00,120.00
             3733.00,120.00 3733.00,720.00 3733.00,720.00
             3733.00,720.00 3702.00,720.00 3702.00,720.00
             3702.00,720.00 3689.60,718.98 3689.60,718.98
             3689.60,718.98 3688.00,711.00 3688.00,711.00
             3688.00,711.00 3688.00,693.00 3688.00,693.00
             3688.00,693.00 3687.00,679.00 3687.00,679.00
             3687.00,679.00 3686.00,668.00 3686.00,668.00
             3683.09,674.82 3674.64,683.55 3669.00,688.42
             3655.55,700.05 3645.40,707.21 3629.00,714.40
             3587.93,732.00 3534.83,733.94 3494.00,714.40
             3473.15,704.59 3452.75,687.15 3438.66,669.00
             3420.82,646.00 3408.19,616.14 3401.13,588.00
             3396.64,570.15 3394.17,552.31 3392.91,534.00
             3392.91,534.00 3392.00,522.00 3392.00,522.00
             3392.00,522.00 3392.00,496.00 3392.00,496.00
             3392.00,496.00 3392.91,484.00 3392.91,484.00
             3396.12,437.04 3407.67,390.84 3435.43,352.00
             3449.60,332.16 3469.10,314.76 3491.00,303.81
             3509.14,294.73 3534.73,289.03 3555.00,289.00
             3609.73,288.91 3653.51,307.29 3686.00,353.00
             3686.00,353.00 3686.00,120.00 3686.00,120.00 Z
           M 1969.00,145.78
           C 1975.52,144.89 1978.71,149.71 1983.00,154.00
             1983.00,154.00 2011.00,182.00 2011.00,182.00
             2011.00,182.00 2126.00,297.00 2126.00,297.00
             2126.00,297.00 2273.00,444.00 2273.00,444.00
             2273.00,444.00 2311.00,482.00 2311.00,482.00
             2314.47,485.47 2324.74,494.56 2325.46,499.00
             2325.99,502.24 2323.90,504.75 2321.89,507.00
             2321.89,507.00 2308.00,521.00 2308.00,521.00
             2308.00,521.00 2250.00,579.00 2250.00,579.00
             2250.00,579.00 2043.00,786.00 2043.00,786.00
             2043.00,786.00 1991.00,838.00 1991.00,838.00
             1987.09,841.91 1976.24,854.55 1971.00,854.55
             1966.17,854.55 1958.42,845.42 1955.00,842.00
             1955.00,842.00 1918.00,805.00 1918.00,805.00
             1918.00,805.00 1804.00,691.00 1804.00,691.00
             1804.00,691.00 1770.00,657.00 1770.00,657.00
             1766.80,653.80 1755.56,643.16 1754.03,640.00
             1751.93,635.69 1754.28,632.18 1757.11,629.00
             1757.11,629.00 1775.00,611.91 1775.00,611.91
             1777.51,609.59 1781.15,604.84 1785.00,606.17
             1787.65,607.09 1795.57,615.57 1798.00,618.00
             1798.00,618.00 1826.00,646.00 1826.00,646.00
             1826.00,646.00 1928.00,748.00 1928.00,748.00
             1928.00,748.00 1957.00,777.00 1957.00,777.00
             1959.29,779.29 1967.51,788.15 1970.00,788.80
             1973.53,789.73 1978.68,783.32 1981.00,781.00
             1981.00,781.00 2007.00,755.00 2007.00,755.00
             2007.00,755.00 2116.00,646.00 2116.00,646.00
             2116.00,646.00 2225.00,537.00 2225.00,537.00
             2225.00,537.00 2252.00,510.00 2252.00,510.00
             2254.15,507.85 2260.96,501.93 2260.96,499.00
             2260.96,495.79 2249.70,485.70 2247.00,483.00
             2247.00,483.00 2205.00,441.00 2205.00,441.00
             2205.00,441.00 2036.00,272.00 2036.00,272.00
             2036.00,272.00 1988.00,224.00 1988.00,224.00
             1988.00,224.00 1976.00,212.04 1976.00,212.04
             1974.33,210.51 1972.49,208.54 1970.00,209.20
             1967.40,209.88 1957.52,220.48 1955.00,223.00
             1955.00,223.00 1919.00,259.00 1919.00,259.00
             1919.00,259.00 1831.00,347.00 1831.00,347.00
             1831.00,347.00 1786.00,391.85 1786.00,391.85
             1783.94,393.59 1781.85,395.09 1779.00,394.63
             1775.92,394.12 1773.14,391.10 1771.00,389.00
             1771.00,389.00 1758.00,376.00 1758.00,376.00
             1755.14,373.13 1749.37,368.55 1750.66,364.00
             1751.66,360.43 1762.81,350.19 1766.00,347.00
             1766.00,347.00 1805.00,308.00 1805.00,308.00
             1805.00,308.00 1917.00,196.00 1917.00,196.00
             1917.00,196.00 1950.00,163.00 1950.00,163.00
             1955.08,157.92 1962.92,148.84 1969.00,145.78 Z
           M 615.00,394.00
           C 615.00,394.00 480.00,259.00 480.00,259.00
             480.00,259.00 444.00,223.00 444.00,223.00
             441.40,220.40 431.79,210.03 429.00,209.34
             426.52,208.72 424.69,210.55 423.00,212.06
             423.00,212.06 411.00,224.00 411.00,224.00
             411.00,224.00 363.00,272.00 363.00,272.00
             363.00,272.00 193.00,442.00 193.00,442.00
             193.00,442.00 150.00,485.00 150.00,485.00
             147.22,487.78 136.20,497.59 136.20,501.00
             136.20,504.41 147.22,514.22 150.00,517.00
             150.00,517.00 193.00,560.00 193.00,560.00
             193.00,560.00 363.00,730.00 363.00,730.00
             363.00,730.00 410.00,777.00 410.00,777.00
             410.00,777.00 422.00,788.98 422.00,788.98
             423.51,790.42 425.76,792.80 428.00,792.80
             431.16,792.80 437.67,785.33 440.00,783.00
             440.00,783.00 472.00,751.00 472.00,751.00
             472.00,751.00 598.00,625.00 598.00,625.00
             598.00,625.00 612.00,611.02 612.00,611.02
             613.79,609.31 616.34,606.63 619.00,606.63
             621.93,606.63 625.05,610.09 627.00,612.00
             627.00,612.00 642.98,628.00 642.98,628.00
             645.03,630.14 647.97,632.72 646.83,636.00
             645.88,638.76 635.66,648.34 633.00,651.00
             633.00,651.00 600.00,684.00 600.00,684.00
             600.00,684.00 480.00,804.00 480.00,804.00
             480.00,804.00 443.00,841.00 443.00,841.00
             440.01,843.99 432.10,853.14 428.00,853.14
             425.02,853.14 422.00,849.92 420.00,847.98
             420.00,847.98 406.00,834.00 406.00,834.00
             406.00,834.00 347.00,775.00 347.00,775.00
             347.00,775.00 147.00,575.00 147.00,575.00
             147.00,575.00 94.00,522.00 94.00,522.00
             94.00,522.00 81.00,509.00 81.00,509.00
             79.09,507.06 75.51,503.71 74.96,501.00
             74.32,497.80 77.06,495.12 79.04,493.00
             79.04,493.00 93.00,479.00 93.00,479.00
             93.00,479.00 154.00,418.00 154.00,418.00
             154.00,418.00 347.00,225.00 347.00,225.00
             347.00,225.00 402.00,170.00 402.00,170.00
             402.00,170.00 417.00,155.00 417.00,155.00
             419.09,152.92 423.40,148.29 426.00,147.28
             431.52,145.13 440.37,156.37 444.00,160.00
             444.00,160.00 490.00,206.00 490.00,206.00
             490.00,206.00 605.00,321.00 605.00,321.00
             605.00,321.00 634.00,350.00 634.00,350.00
             636.78,352.78 644.20,359.17 644.46,363.00
             644.71,366.68 640.37,370.60 638.00,373.00
             633.00,378.07 620.40,390.14 615.00,394.00 Z
           M 945.00,289.21
           C 945.00,289.21 966.00,289.21 966.00,289.21
             980.71,289.02 1002.91,292.66 1017.00,297.02
             1030.86,301.32 1043.59,307.54 1056.00,315.00
             1107.71,346.10 1135.83,401.00 1145.57,459.00
             1149.17,480.49 1149.25,502.27 1149.00,524.00
             1149.00,524.00 1148.17,533.00 1148.17,533.00
             1148.17,533.00 1146.13,554.00 1146.13,554.00
             1136.05,626.52 1095.93,691.51 1025.00,717.77
             997.99,727.77 975.20,728.33 947.00,728.00
             933.06,727.83 912.30,723.40 899.00,719.00
             884.83,714.32 871.43,707.58 859.00,699.33
             813.36,669.04 785.04,618.22 775.42,565.00
             770.73,539.01 770.70,517.18 771.00,491.00
             771.00,491.00 773.73,464.00 773.73,464.00
             782.48,402.77 812.89,343.97 868.00,312.43
             886.53,301.82 906.85,294.39 928.00,291.27
             928.00,291.27 945.00,289.21 945.00,289.21 Z
           M 1321.00,376.00
           C 1321.00,376.00 1338.42,351.00 1338.42,351.00
             1351.73,333.86 1368.54,318.65 1388.00,308.76
             1398.69,303.32 1408.39,298.74 1420.00,295.43
             1468.10,281.70 1531.03,288.82 1567.99,325.04
             1592.81,349.37 1605.36,388.00 1608.08,422.00
             1608.08,422.00 1609.00,434.00 1609.00,434.00
             1609.00,434.00 1609.00,471.00 1609.00,471.00
             1609.00,471.00 1610.00,488.00 1610.00,488.00
             1610.00,488.00 1610.00,720.00 1610.00,720.00
             1610.00,720.00 1562.00,720.00 1562.00,720.00
             1562.00,720.00 1562.00,449.00 1562.00,449.00
             1562.00,449.00 1561.09,437.00 1561.09,437.00
             1558.23,395.38 1545.04,356.48 1503.00,339.45
             1487.17,333.04 1469.95,330.92 1453.00,331.00
             1424.95,331.13 1392.59,343.77 1371.00,361.46
             1360.27,370.25 1350.90,380.73 1342.86,392.00
             1333.87,404.60 1323.02,423.23 1323.00,439.00
             1323.00,439.00 1323.00,720.00 1323.00,720.00
             1323.00,720.00 1275.00,720.00 1275.00,720.00
             1275.00,720.00 1275.00,297.00 1275.00,297.00
             1275.00,297.00 1319.00,297.00 1319.00,297.00
             1319.00,297.00 1320.00,320.00 1320.00,320.00
             1320.00,320.00 1320.00,336.00 1320.00,336.00
             1320.00,336.00 1321.00,352.00 1321.00,352.00
             1321.00,352.00 1321.00,376.00 1321.00,376.00 Z
           M 2596.00,289.21
           C 2596.00,289.21 2617.00,289.21 2617.00,289.21
             2631.71,289.02 2653.91,292.66 2668.00,297.02
             2681.86,301.32 2694.59,307.54 2707.00,315.00
             2758.71,346.10 2786.83,401.00 2796.57,459.00
             2800.17,480.49 2800.25,502.27 2800.00,524.00
             2800.00,524.00 2799.17,533.00 2799.17,533.00
             2799.17,533.00 2797.13,554.00 2797.13,554.00
             2787.05,626.52 2746.93,691.51 2676.00,717.77
             2648.99,727.77 2626.20,728.33 2598.00,728.00
             2584.06,727.83 2563.30,723.40 2550.00,719.00
             2535.83,714.32 2522.43,707.58 2510.00,699.33
             2464.36,669.04 2436.04,618.22 2426.42,565.00
             2421.73,539.01 2421.70,517.18 2422.00,491.00
             2422.00,491.00 2424.73,464.00 2424.73,464.00
             2433.48,402.77 2463.89,343.97 2519.00,312.43
             2537.53,301.82 2557.85,294.39 2579.00,291.27
             2579.00,291.27 2596.00,289.21 2596.00,289.21 Z
           M 3041.00,377.00
           C 3045.60,367.45 3053.94,357.05 3060.87,349.00
             3069.18,339.35 3078.66,331.00 3089.00,323.58
             3127.96,295.61 3168.07,288.45 3215.00,289.00
             3225.65,289.13 3245.33,291.50 3256.00,293.42
             3259.00,293.97 3268.28,295.45 3269.86,297.72
             3271.52,299.71 3270.07,307.33 3269.86,310.00
             3269.86,310.00 3265.00,344.00 3265.00,344.00
             3251.76,340.49 3233.72,338.03 3220.00,337.00
             3220.00,337.00 3211.00,337.00 3211.00,337.00
             3211.00,337.00 3201.00,336.00 3201.00,336.00
             3201.00,336.00 3197.00,336.00 3197.00,336.00
             3197.00,336.00 3186.00,336.91 3186.00,336.91
             3169.32,338.05 3153.08,340.04 3137.00,345.02
             3102.80,355.62 3075.70,377.37 3057.20,408.00
             3049.67,420.47 3040.02,441.38 3040.00,456.00
             3040.00,456.00 3040.00,720.00 3040.00,720.00
             3040.00,720.00 2991.00,720.00 2991.00,720.00
             2991.00,720.00 2991.00,297.00 2991.00,297.00
             2991.00,297.00 3037.00,297.00 3037.00,297.00
             3037.00,297.00 3038.00,332.00 3038.00,332.00
             3038.00,332.00 3039.00,349.00 3039.00,349.00
             3039.01,358.06 3037.88,368.46 3041.00,377.00 Z
           M 952.00,330.14
           C 932.84,333.04 922.30,333.34 904.00,342.26
             860.85,363.29 836.42,403.82 825.13,449.00
             822.19,460.75 819.02,479.02 819.00,491.00
             819.00,491.00 819.00,527.00 819.00,527.00
             819.02,537.79 821.99,556.39 824.63,567.00
             837.51,618.80 865.88,664.01 919.00,681.33
             927.42,684.08 940.19,686.89 949.00,687.00
             967.73,687.22 982.77,687.50 1001.00,681.66
             1012.39,678.01 1023.16,672.61 1033.00,665.80
             1069.22,640.69 1088.39,602.28 1096.80,560.00
             1098.59,551.01 1100.96,534.96 1101.00,526.00
             1101.00,526.00 1101.00,493.00 1101.00,493.00
             1100.98,480.26 1097.98,462.44 1094.87,450.00
             1082.66,401.14 1055.07,356.67 1006.00,338.06
             992.62,332.99 973.30,329.98 959.00,330.14
             959.00,330.14 952.00,330.14 952.00,330.14 Z
           M 2603.00,330.14
           C 2583.84,333.04 2573.30,333.34 2555.00,342.26
             2511.85,363.29 2487.42,403.82 2476.13,449.00
             2473.19,460.75 2470.02,479.02 2470.00,491.00
             2470.00,491.00 2470.00,527.00 2470.00,527.00
             2470.02,537.79 2472.99,556.39 2475.63,567.00
             2488.51,618.80 2516.88,664.01 2570.00,681.33
             2578.42,684.08 2591.19,686.89 2600.00,687.00
             2618.73,687.22 2633.77,687.50 2652.00,681.66
             2663.39,678.01 2674.16,672.61 2684.00,665.80
             2720.22,640.69 2739.39,602.28 2747.80,560.00
             2749.59,551.01 2751.96,534.96 2752.00,526.00
             2752.00,526.00 2752.00,493.00 2752.00,493.00
             2751.98,480.26 2748.98,462.44 2745.87,450.00
             2733.66,401.14 2706.07,356.67 2657.00,338.06
             2643.62,332.99 2624.30,329.98 2610.00,330.14
             2610.00,330.14 2603.00,330.14 2603.00,330.14 Z
           M 3562.00,331.14
           C 3562.00,331.14 3551.00,332.29 3551.00,332.29
             3539.86,333.66 3524.89,337.65 3515.00,342.89
             3462.53,370.71 3444.71,430.79 3440.91,486.00
             3440.91,486.00 3440.00,498.00 3440.00,498.00
             3440.00,498.00 3440.00,520.00 3440.00,520.00
             3440.02,533.82 3443.28,558.38 3446.35,572.00
             3454.70,609.08 3468.90,641.27 3500.00,664.87
             3510.94,673.17 3523.54,679.56 3537.00,682.58
             3544.09,684.16 3554.81,685.91 3562.00,686.00
             3562.00,686.00 3574.00,686.00 3574.00,686.00
             3608.15,685.95 3643.39,669.33 3665.95,644.00
             3671.95,637.27 3683.74,620.66 3685.82,612.00
             3686.07,609.88 3686.00,607.19 3685.82,605.00
             3685.82,605.00 3685.82,503.00 3685.82,503.00
             3685.82,503.00 3685.82,419.00 3685.82,419.00
             3686.00,416.33 3686.07,413.62 3685.82,411.00
             3683.60,402.83 3672.88,385.83 3667.58,379.00
             3644.51,349.29 3609.71,331.44 3572.00,331.14
             3572.00,331.14 3562.00,331.14 3562.00,331.14 Z" />
</svg>
