<?xml version="1.0" encoding="UTF-8" standalone="no"?>
<!DOCTYPE svg PUBLIC "-//W3C//DTD SVG 20010904//EN"
              "http://www.w3.org/TR/2001/REC-SVG-20010904/DTD/svg10.dtd">

<svg xmlns="http://www.w3.org/2000/svg"
     width="13.3333in" height="6.66667in"
     viewBox="0 0 4000 2000">
  <path id="Selection"
        fill="none" stroke="black" stroke-width="1"
        d="M 2001.00,942.00
           C 2004.50,937.13 2016.73,926.27 2022.00,921.00
             2022.00,921.00 2059.00,884.04 2059.00,884.04
             2059.00,884.04 2068.00,875.96 2068.00,875.96
             2068.00,875.96 2113.00,831.01 2113.00,831.01
             2113.00,831.01 2124.00,820.99 2124.00,820.99
             2124.00,820.99 2169.00,776.04 2169.00,776.04
             2169.00,776.04 2179.00,766.99 2179.00,766.99
             2179.00,766.99 2223.00,723.01 2223.00,723.01
             2223.00,723.01 2234.00,712.99 2234.00,712.99
             2234.00,712.99 2278.00,669.01 2278.00,669.01
             2278.00,669.01 2288.00,659.96 2288.00,659.96
             2288.00,659.96 2333.00,615.01 2333.00,615.01
             2333.00,615.01 2344.00,604.99 2344.00,604.99
             2344.00,604.99 2389.00,560.04 2389.00,560.04
             2389.00,560.04 2399.00,550.99 2399.00,550.99
             2399.00,550.99 2443.00,507.01 2443.00,507.01
             2443.00,507.01 2462.00,489.00 2462.00,489.00
             2462.00,489.00 2505.00,446.72 2505.00,446.72
             2505.00,446.72 2522.00,430.00 2522.00,430.00
             2522.00,430.00 2552.00,400.00 2552.00,400.00
             2552.00,400.00 2564.00,388.99 2564.00,388.99
             2564.00,388.99 2608.00,345.01 2608.00,345.01
             2608.00,345.01 2619.00,334.99 2619.00,334.99
             2619.00,334.99 2647.00,307.00 2647.00,307.00
             2649.54,304.47 2653.98,298.78 2658.00,300.17
             2661.53,301.39 2668.25,309.96 2671.09,313.00
             2671.09,313.00 2699.00,341.00 2699.00,341.00
             2699.00,341.00 2717.96,360.00 2717.96,360.00
             2717.96,360.00 2727.01,370.00 2727.01,370.00
             2727.01,370.00 2770.99,414.00 2770.99,414.00
             2770.99,414.00 2780.04,424.00 2780.04,424.00
             2780.04,424.00 2806.00,450.00 2806.00,450.00
             2806.00,450.00 2825.96,470.00 2825.96,470.00
             2825.96,470.00 2836.00,481.00 2836.00,481.00
             2836.00,481.00 2879.96,525.00 2879.96,525.00
             2879.96,525.00 2889.01,535.00 2889.01,535.00
             2889.01,535.00 2932.99,579.00 2932.99,579.00
             2932.99,579.00 2942.04,589.00 2942.04,589.00
             2942.04,589.00 2986.99,634.00 2986.99,634.00
             2986.99,634.00 2997.01,645.00 2997.01,645.00
             2997.01,645.00 3040.99,689.00 3040.99,689.00
             3040.99,689.00 3050.04,699.00 3050.04,699.00
             3050.04,699.00 3094.99,744.00 3094.99,744.00
             3094.99,744.00 3104.04,754.00 3104.04,754.00
             3104.04,754.00 3148.00,798.00 3148.00,798.00
             3148.00,798.00 3159.01,810.00 3159.01,810.00
             3159.01,810.00 3198.00,849.00 3198.00,849.00
             3198.00,849.00 3213.01,865.00 3213.01,865.00
             3213.01,865.00 3256.99,909.00 3256.99,909.00
             3256.99,909.00 3267.01,920.00 3267.01,920.00
             3267.01,920.00 3319.09,973.00 3319.09,973.00
             3319.09,973.00 3348.00,1002.00 3348.00,1002.00
             3350.66,1004.66 3357.27,1009.83 3355.83,1014.00
             3354.89,1016.72 3349.29,1021.59 3347.00,1023.58
             3347.00,1023.58 3331.00,1039.00 3331.00,1039.00
             3331.00,1039.00 3265.00,1104.00 3265.00,1104.00
             3265.00,1104.00 3241.00,1127.96 3241.00,1127.96
             3241.00,1127.96 3230.00,1138.00 3230.00,1138.00
             3230.00,1138.00 3186.00,1181.96 3186.00,1181.96
             3186.00,1181.96 3176.00,1191.01 3176.00,1191.01
             3176.00,1191.01 3132.00,1234.99 3132.00,1234.99
             3132.00,1234.99 3122.00,1244.04 3122.00,1244.04
             3122.00,1244.04 3078.00,1288.00 3078.00,1288.00
             3078.00,1288.00 3066.00,1299.01 3066.00,1299.01
             3066.00,1299.01 3024.00,1341.00 3024.00,1341.00
             3024.00,1341.00 3012.00,1352.04 3012.00,1352.04
             3012.00,1352.04 2968.00,1396.00 2968.00,1396.00
             2968.00,1396.00 2950.00,1413.00 2950.00,1413.00
             2950.00,1413.00 2929.00,1434.00 2929.00,1434.00
             2927.12,1435.88 2922.37,1441.07 2920.00,1441.66
             2916.00,1442.66 2906.84,1431.93 2904.04,1429.00
             2904.04,1429.00 2878.00,1402.00 2878.00,1402.00
             2872.56,1396.56 2864.27,1388.97 2860.00,1383.00
             2860.00,1383.00 2879.00,1364.04 2879.00,1364.04
             2879.00,1364.04 2890.00,1354.00 2890.00,1354.00
             2890.00,1354.00 2934.00,1310.04 2934.00,1310.04
             2934.00,1310.04 2944.00,1300.99 2944.00,1300.99
             2944.00,1300.99 2988.00,1257.01 2988.00,1257.01
             2988.00,1257.01 2998.00,1247.96 2998.00,1247.96
             2998.00,1247.96 3043.00,1203.01 3043.00,1203.01
             3043.00,1203.01 3054.00,1192.99 3054.00,1192.99
             3054.00,1192.99 3097.00,1150.01 3097.00,1150.01
             3097.00,1150.01 3108.00,1139.99 3108.00,1139.99
             3108.00,1139.99 3153.00,1095.04 3153.00,1095.04
             3153.00,1095.04 3163.00,1085.99 3163.00,1085.99
             3163.00,1085.99 3207.00,1042.01 3207.00,1042.01
             3207.00,1042.01 3217.00,1032.96 3217.00,1032.96
             3217.00,1032.96 3239.00,1011.00 3239.00,1011.00
             3239.00,1011.00 3213.00,985.00 3213.00,985.00
             3213.00,985.00 3162.91,934.00 3162.91,934.00
             3162.91,934.00 3118.00,889.00 3118.00,889.00
             3118.00,889.00 3106.99,877.00 3106.99,877.00
             3106.99,877.00 3063.01,833.00 3063.01,833.00
             3063.01,833.00 3052.99,822.00 3052.99,822.00
             3052.99,822.00 3009.01,778.00 3009.01,778.00
             3009.01,778.00 2999.96,768.00 2999.96,768.00
             2999.96,768.00 2955.01,723.00 2955.01,723.00
             2955.01,723.00 2945.96,713.00 2945.96,713.00
             2945.96,713.00 2901.01,668.00 2901.01,668.00
             2901.01,668.00 2890.99,657.00 2890.99,657.00
             2890.99,657.00 2847.01,613.00 2847.01,613.00
             2847.01,613.00 2836.99,602.00 2836.99,602.00
             2836.99,602.00 2793.04,558.00 2793.04,558.00
             2793.04,558.00 2783.99,548.00 2783.99,548.00
             2783.99,548.00 2740.01,504.00 2740.01,504.00
             2740.01,504.00 2730.96,494.00 2730.96,494.00
             2730.96,494.00 2687.00,450.00 2687.00,450.00
             2687.00,450.00 2676.96,439.00 2676.96,439.00
             2676.96,439.00 2653.00,415.00 2653.00,415.00
             2653.00,415.00 2633.00,435.00 2633.00,435.00
             2633.00,435.00 2598.00,469.96 2598.00,469.96
             2598.00,469.96 2589.00,478.04 2589.00,478.04
             2589.00,478.04 2544.00,522.99 2544.00,522.99
             2544.00,522.99 2533.00,533.01 2533.00,533.01
             2533.00,533.01 2489.00,576.99 2489.00,576.99
             2489.00,576.99 2476.00,589.00 2476.00,589.00
             2476.00,589.00 2434.00,630.99 2434.00,630.99
             2434.00,630.99 2422.00,642.00 2422.00,642.00
             2422.00,642.00 2378.00,685.96 2378.00,685.96
             2378.00,685.96 2368.00,695.01 2368.00,695.01
             2368.00,695.01 2323.00,739.96 2323.00,739.96
             2323.00,739.96 2313.00,749.01 2313.00,749.01
             2313.00,749.01 2269.00,792.99 2269.00,792.99
             2269.00,792.99 2259.00,802.04 2259.00,802.04
             2259.00,802.04 2214.00,846.99 2214.00,846.99
             2214.00,846.99 2203.00,857.01 2203.00,857.01
             2203.00,857.01 2159.00,900.99 2159.00,900.99
             2159.00,900.99 2149.00,910.04 2149.00,910.04
             2149.00,910.04 2105.00,954.00 2105.00,954.00
             2105.00,954.00 2094.00,964.04 2094.00,964.04
             2094.00,964.04 2057.00,1001.00 2057.00,1001.00
             2057.00,1001.00 2078.00,1022.00 2078.00,1022.00
             2078.00,1022.00 2113.96,1058.00 2113.96,1058.00
             2113.96,1058.00 2122.04,1067.00 2122.04,1067.00
             2122.04,1067.00 2166.99,1112.00 2166.99,1112.00
             2166.99,1112.00 2177.01,1123.00 2177.01,1123.00
             2177.01,1123.00 2221.96,1168.00 2221.96,1168.00
             2221.96,1168.00 2231.01,1178.00 2231.01,1178.00
             2231.01,1178.00 2274.99,1222.00 2274.99,1222.00
             2274.99,1222.00 2284.04,1232.00 2284.04,1232.00
             2284.04,1232.00 2328.00,1276.00 2328.00,1276.00
             2328.00,1276.00 2338.04,1287.00 2338.04,1287.00
             2338.04,1287.00 2363.00,1312.00 2363.00,1312.00
             2363.00,1312.00 2407.00,1357.00 2407.00,1357.00
             2407.00,1357.00 2435.00,1386.00 2435.00,1386.00
             2435.00,1386.00 2394.00,1427.00 2394.00,1427.00
             2394.00,1427.00 2383.00,1437.07 2383.00,1437.07
             2383.00,1437.07 2377.00,1440.80 2377.00,1440.80
             2377.00,1440.80 2369.00,1435.00 2369.00,1435.00
             2369.00,1435.00 2352.00,1417.00 2352.00,1417.00
             2352.00,1417.00 2282.00,1346.00 2282.00,1346.00
             2282.00,1346.00 2258.04,1322.00 2258.04,1322.00
             2258.04,1322.00 2248.00,1311.00 2248.00,1311.00
             2248.00,1311.00 2204.04,1267.00 2204.04,1267.00
             2204.04,1267.00 2194.99,1257.00 2194.99,1257.00
             2194.99,1257.00 2097.01,1158.00 2097.01,1158.00
             2097.01,1158.00 2087.96,1148.00 2087.96,1148.00
             2087.96,1148.00 2044.00,1104.00 2044.00,1104.00
             2044.00,1104.00 2033.96,1093.00 2033.96,1093.00
             2033.96,1093.00 1999.00,1058.00 1999.00,1058.00
             1995.50,1062.87 1983.27,1073.73 1978.00,1079.00
             1978.00,1079.00 1941.00,1115.96 1941.00,1115.96
             1941.00,1115.96 1932.00,1124.04 1932.00,1124.04
             1932.00,1124.04 1887.00,1168.99 1887.00,1168.99
             1887.00,1168.99 1876.00,1179.01 1876.00,1179.01
             1876.00,1179.01 1831.00,1223.96 1831.00,1223.96
             1831.00,1223.96 1821.00,1233.01 1821.00,1233.01
             1821.00,1233.01 1777.00,1276.99 1777.00,1276.99
             1777.00,1276.99 1766.00,1287.01 1766.00,1287.01
             1766.00,1287.01 1721.00,1331.96 1721.00,1331.96
             1721.00,1331.96 1711.00,1341.01 1711.00,1341.01
             1711.00,1341.01 1666.00,1385.96 1666.00,1385.96
             1666.00,1385.96 1656.00,1395.01 1656.00,1395.01
             1656.00,1395.01 1612.00,1438.99 1612.00,1438.99
             1612.00,1438.99 1601.00,1449.01 1601.00,1449.01
             1601.00,1449.01 1557.00,1492.99 1557.00,1492.99
             1557.00,1492.99 1538.00,1511.00 1538.00,1511.00
             1538.00,1511.00 1495.00,1553.28 1495.00,1553.28
             1495.00,1553.28 1478.00,1570.00 1478.00,1570.00
             1478.00,1570.00 1448.00,1600.00 1448.00,1600.00
             1448.00,1600.00 1436.00,1611.01 1436.00,1611.01
             1436.00,1611.01 1392.00,1654.99 1392.00,1654.99
             1392.00,1654.99 1381.00,1665.01 1381.00,1665.01
             1381.00,1665.01 1353.00,1693.00 1353.00,1693.00
             1350.46,1695.53 1346.02,1701.22 1342.00,1699.83
             1338.47,1698.61 1331.75,1690.04 1328.91,1687.00
             1328.91,1687.00 1301.00,1659.00 1301.00,1659.00
             1301.00,1659.00 1282.04,1640.00 1282.04,1640.00
             1282.04,1640.00 1272.99,1630.00 1272.99,1630.00
             1272.99,1630.00 1229.01,1586.00 1229.01,1586.00
             1229.01,1586.00 1219.96,1576.00 1219.96,1576.00
             1219.96,1576.00 1194.00,1550.00 1194.00,1550.00
             1194.00,1550.00 1174.04,1530.00 1174.04,1530.00
             1174.04,1530.00 1164.00,1519.00 1164.00,1519.00
             1164.00,1519.00 1120.04,1475.00 1120.04,1475.00
             1120.04,1475.00 1110.99,1465.00 1110.99,1465.00
             1110.99,1465.00 1067.01,1421.00 1067.01,1421.00
             1067.01,1421.00 1057.96,1411.00 1057.96,1411.00
             1057.96,1411.00 1013.01,1366.00 1013.01,1366.00
             1013.01,1366.00 1002.99,1355.00 1002.99,1355.00
             1002.99,1355.00 959.01,1311.00 959.01,1311.00
             959.01,1311.00 949.96,1301.00 949.96,1301.00
             949.96,1301.00 905.01,1256.00 905.01,1256.00
             905.01,1256.00 895.96,1246.00 895.96,1246.00
             895.96,1246.00 852.00,1202.00 852.00,1202.00
             852.00,1202.00 840.99,1190.00 840.99,1190.00
             840.99,1190.00 802.00,1151.00 802.00,1151.00
             802.00,1151.00 786.99,1135.00 786.99,1135.00
             786.99,1135.00 743.01,1091.00 743.01,1091.00
             743.01,1091.00 732.99,1080.00 732.99,1080.00
             732.99,1080.00 680.91,1027.00 680.91,1027.00
             680.91,1027.00 652.00,998.00 652.00,998.00
             649.34,995.34 642.73,990.17 644.17,986.00
             645.11,983.28 650.71,978.41 653.00,976.42
             653.00,976.42 669.00,961.00 669.00,961.00
             669.00,961.00 735.00,896.00 735.00,896.00
             735.00,896.00 759.00,872.04 759.00,872.04
             759.00,872.04 770.00,862.00 770.00,862.00
             770.00,862.00 814.00,818.04 814.00,818.04
             814.00,818.04 824.00,808.99 824.00,808.99
             824.00,808.99 868.00,765.01 868.00,765.01
             868.00,765.01 878.00,755.96 878.00,755.96
             878.00,755.96 922.00,712.00 922.00,712.00
             922.00,712.00 934.00,700.99 934.00,700.99
             934.00,700.99 976.00,659.00 976.00,659.00
             976.00,659.00 988.00,647.96 988.00,647.96
             988.00,647.96 1032.00,604.00 1032.00,604.00
             1032.00,604.00 1050.00,587.00 1050.00,587.00
             1050.00,587.00 1071.00,566.00 1071.00,566.00
             1072.88,564.12 1077.63,558.93 1080.00,558.34
             1084.00,557.34 1093.16,568.07 1095.96,571.00
             1095.96,571.00 1122.00,598.00 1122.00,598.00
             1127.44,603.44 1135.73,611.03 1140.00,617.00
             1140.00,617.00 1121.00,635.96 1121.00,635.96
             1121.00,635.96 1110.00,646.00 1110.00,646.00
             1110.00,646.00 1066.00,689.96 1066.00,689.96
             1066.00,689.96 1056.00,699.01 1056.00,699.01
             1056.00,699.01 1012.00,742.99 1012.00,742.99
             1012.00,742.99 1001.00,753.01 1001.00,753.01
             1001.00,753.01 956.00,797.96 956.00,797.96
             956.00,797.96 946.00,807.01 946.00,807.01
             946.00,807.01 903.00,849.99 903.00,849.99
             903.00,849.99 893.00,859.04 893.00,859.04
             893.00,859.04 848.00,903.99 848.00,903.99
             848.00,903.99 837.00,914.01 837.00,914.01
             837.00,914.01 793.00,957.99 793.00,957.99
             793.00,957.99 783.00,967.04 783.00,967.04
             783.00,967.04 761.00,989.00 761.00,989.00
             761.00,989.00 787.00,1015.00 787.00,1015.00
             787.00,1015.00 837.09,1066.00 837.09,1066.00
             837.09,1066.00 882.00,1111.00 882.00,1111.00
             882.00,1111.00 893.01,1123.00 893.01,1123.00
             893.01,1123.00 936.99,1167.00 936.99,1167.00
             936.99,1167.00 947.01,1178.00 947.01,1178.00
             947.01,1178.00 990.99,1222.00 990.99,1222.00
             990.99,1222.00 1000.04,1232.00 1000.04,1232.00
             1000.04,1232.00 1044.99,1277.00 1044.99,1277.00
             1044.99,1277.00 1055.01,1288.00 1055.01,1288.00
             1055.01,1288.00 1099.96,1333.00 1099.96,1333.00
             1099.96,1333.00 1109.01,1343.00 1109.01,1343.00
             1109.01,1343.00 1152.99,1387.00 1152.99,1387.00
             1152.99,1387.00 1163.01,1398.00 1163.01,1398.00
             1163.01,1398.00 1206.96,1442.00 1206.96,1442.00
             1206.96,1442.00 1216.01,1452.00 1216.01,1452.00
             1216.01,1452.00 1259.99,1496.00 1259.99,1496.00
             1259.99,1496.00 1269.04,1506.00 1269.04,1506.00
             1269.04,1506.00 1313.00,1550.00 1313.00,1550.00
             1313.00,1550.00 1323.04,1561.00 1323.04,1561.00
             1323.04,1561.00 1347.00,1585.00 1347.00,1585.00
             1347.00,1585.00 1367.00,1565.00 1367.00,1565.00
             1367.00,1565.00 1402.00,1530.04 1402.00,1530.04
             1402.00,1530.04 1411.00,1521.96 1411.00,1521.96
             1411.00,1521.96 1456.00,1477.01 1456.00,1477.01
             1456.00,1477.01 1467.00,1466.99 1467.00,1466.99
             1467.00,1466.99 1511.00,1423.01 1511.00,1423.01
             1511.00,1423.01 1524.00,1411.00 1524.00,1411.00
             1524.00,1411.00 1566.00,1369.01 1566.00,1369.01
             1566.00,1369.01 1578.00,1358.00 1578.00,1358.00
             1578.00,1358.00 1622.00,1314.04 1622.00,1314.04
             1622.00,1314.04 1632.00,1304.99 1632.00,1304.99
             1632.00,1304.99 1677.00,1260.04 1677.00,1260.04
             1677.00,1260.04 1687.00,1250.99 1687.00,1250.99
             1687.00,1250.99 1731.00,1207.01 1731.00,1207.01
             1731.00,1207.01 1742.00,1196.99 1742.00,1196.99
             1742.00,1196.99 1787.00,1152.04 1787.00,1152.04
             1787.00,1152.04 1797.00,1142.99 1797.00,1142.99
             1797.00,1142.99 1841.00,1099.01 1841.00,1099.01
             1841.00,1099.01 1851.00,1089.96 1851.00,1089.96
             1851.00,1089.96 1895.00,1046.00 1895.00,1046.00
             1895.00,1046.00 1906.00,1035.96 1906.00,1035.96
             1906.00,1035.96 1943.00,999.00 1943.00,999.00
             1943.00,999.00 1922.00,978.00 1922.00,978.00
             1922.00,978.00 1886.04,942.00 1886.04,942.00
             1886.04,942.00 1877.96,933.00 1877.96,933.00
             1877.96,933.00 1833.01,888.00 1833.01,888.00
             1833.01,888.00 1823.96,878.00 1823.96,878.00
             1823.96,878.00 1779.01,833.00 1779.01,833.00
             1779.01,833.00 1768.99,822.00 1768.99,822.00
             1768.99,822.00 1725.01,778.00 1725.01,778.00
             1725.01,778.00 1715.96,768.00 1715.96,768.00
             1715.96,768.00 1672.00,724.00 1672.00,724.00
             1672.00,724.00 1661.96,713.00 1661.96,713.00
             1661.96,713.00 1637.00,688.00 1637.00,688.00
             1637.00,688.00 1593.00,643.00 1593.00,643.00
             1593.00,643.00 1565.00,614.00 1565.00,614.00
             1565.00,614.00 1606.00,573.00 1606.00,573.00
             1606.00,573.00 1617.00,562.93 1617.00,562.93
             1617.00,562.93 1623.00,559.20 1623.00,559.20
             1623.00,559.20 1631.00,565.00 1631.00,565.00
             1631.00,565.00 1648.00,583.00 1648.00,583.00
             1648.00,583.00 1718.00,654.00 1718.00,654.00
             1718.00,654.00 1741.96,678.00 1741.96,678.00
             1741.96,678.00 1752.00,689.00 1752.00,689.00
             1752.00,689.00 1795.96,733.00 1795.96,733.00
             1795.96,733.00 1805.01,743.00 1805.01,743.00
             1805.01,743.00 1902.99,842.00 1902.99,842.00
             1902.99,842.00 1912.04,852.00 1912.04,852.00
             1912.04,852.00 1956.00,896.00 1956.00,896.00
             1956.00,896.00 1966.04,907.00 1966.04,907.00
             1966.04,907.00 2001.00,942.00 2001.00,942.00 Z" />
</svg>
