<?xml version="1.0" encoding="UTF-8" standalone="no"?>
<!DOCTYPE svg PUBLIC "-//W3C//DTD SVG 20010904//EN"
              "http://www.w3.org/TR/2001/REC-SVG-20010904/DTD/svg10.dtd">

<svg xmlns="http://www.w3.org/2000/svg"
     width="55.5556in" height="22.2222in"
     viewBox="0 0 5000 2000">
  <path id="Selection"
        fill="none" stroke="black" stroke-width="1"
        d="M 743.00,402.00
           C 743.00,402.00 608.00,267.00 608.00,267.00
             608.00,267.00 572.00,231.00 572.00,231.00
             569.40,228.40 559.79,218.03 557.00,217.34
             554.52,216.72 552.69,218.55 551.00,220.06
             551.00,220.06 539.00,232.00 539.00,232.00
             539.00,232.00 491.00,280.00 491.00,280.00
             491.00,280.00 321.00,450.00 321.00,450.00
             321.00,450.00 278.00,493.00 278.00,493.00
             275.22,495.78 264.20,505.59 264.20,509.00
             264.20,511.24 266.58,513.49 268.02,515.00
             268.02,515.00 280.00,527.00 280.00,527.00
             280.00,527.00 327.00,574.00 327.00,574.00
             327.00,574.00 497.00,744.00 497.00,744.00
             497.00,744.00 539.00,786.00 539.00,786.00
             542.13,789.13 551.97,800.37 556.00,800.37
             559.70,800.37 566.35,792.65 569.00,790.00
             569.00,790.00 600.00,759.00 600.00,759.00
             600.00,759.00 726.00,633.00 726.00,633.00
             726.00,633.00 740.00,619.02 740.00,619.02
             741.79,617.31 744.34,614.63 747.00,614.63
             749.93,614.63 753.05,618.09 755.00,620.00
             755.00,620.00 770.98,636.00 770.98,636.00
             773.03,638.14 775.97,640.72 774.83,644.00
             773.91,646.65 765.43,654.57 763.00,657.00
             763.00,657.00 735.00,685.00 735.00,685.00
             735.00,685.00 636.00,784.00 636.00,784.00
             636.00,784.00 602.00,818.00 602.00,818.00
             599.61,820.39 591.04,827.90 591.04,831.00
             591.04,833.20 593.59,835.52 595.01,837.00
             595.01,837.00 608.00,850.00 608.00,850.00
             608.00,850.00 659.00,901.00 659.00,901.00
             659.00,901.00 848.00,1090.00 848.00,1090.00
             848.00,1090.00 895.00,1137.00 895.00,1137.00
             898.77,1140.77 910.55,1150.90 910.55,1156.00
             910.55,1160.83 901.42,1168.58 898.00,1172.00
             898.00,1172.00 858.00,1212.00 858.00,1212.00
             858.00,1212.00 699.00,1371.00 699.00,1371.00
             699.00,1371.00 591.00,1479.00 591.00,1479.00
             591.00,1479.00 566.00,1504.00 566.00,1504.00
             562.91,1507.04 558.86,1511.77 554.00,1510.22
             549.99,1508.94 539.53,1497.53 536.00,1494.00
             536.00,1494.00 496.00,1454.00 496.00,1454.00
             496.00,1454.00 390.00,1348.00 390.00,1348.00
             390.00,1348.00 356.00,1314.00 356.00,1314.00
             352.99,1310.99 341.23,1299.60 339.60,1297.00
             336.67,1292.33 338.86,1288.66 342.11,1285.00
             347.30,1279.16 353.22,1274.05 359.00,1268.83
             361.70,1266.39 365.99,1260.78 370.00,1262.17
             372.65,1263.09 380.57,1271.57 383.00,1274.00
             383.00,1274.00 411.00,1302.00 411.00,1302.00
             411.00,1302.00 513.00,1404.00 513.00,1404.00
             513.00,1404.00 542.00,1433.00 542.00,1433.00
             544.29,1435.29 552.51,1444.15 555.00,1444.80
             557.49,1445.46 559.33,1443.49 561.00,1441.96
             561.00,1441.96 573.00,1430.00 573.00,1430.00
             573.00,1430.00 621.00,1382.00 621.00,1382.00
             621.00,1382.00 790.00,1213.00 790.00,1213.00
             790.00,1213.00 832.00,1171.00 832.00,1171.00
             834.70,1168.30 845.96,1158.21 845.96,1155.00
             845.96,1151.79 834.70,1141.70 832.00,1139.00
             832.00,1139.00 790.00,1097.00 790.00,1097.00
             790.00,1097.00 621.00,928.00 621.00,928.00
             621.00,928.00 573.00,880.00 573.00,880.00
             573.00,880.00 561.00,868.04 561.00,868.04
             559.33,866.51 557.49,864.54 555.00,865.20
             552.40,865.88 542.52,876.48 540.00,879.00
             540.00,879.00 504.00,915.00 504.00,915.00
             504.00,915.00 416.00,1003.00 416.00,1003.00
             416.00,1003.00 371.00,1047.85 371.00,1047.85
             368.94,1049.59 366.85,1051.09 364.00,1050.63
             360.92,1050.12 358.14,1047.10 356.00,1045.00
             356.00,1045.00 343.00,1032.00 343.00,1032.00
             340.14,1029.13 334.37,1024.55 335.66,1020.00
             336.59,1016.68 344.28,1009.72 347.00,1007.00
             347.00,1007.00 375.00,979.00 375.00,979.00
             375.00,979.00 478.00,876.00 478.00,876.00
             478.00,876.00 512.00,842.00 512.00,842.00
             514.85,839.15 522.62,833.48 520.37,829.00
             519.52,827.30 514.60,822.60 513.00,821.00
             513.00,821.00 498.00,806.00 498.00,806.00
             498.00,806.00 447.00,755.00 447.00,755.00
             447.00,755.00 278.00,586.00 278.00,586.00
             278.00,586.00 220.00,528.00 220.00,528.00
             220.00,528.00 206.11,514.00 206.11,514.00
             204.02,511.64 201.99,509.32 203.28,506.00
             204.29,503.40 208.92,499.09 211.00,497.00
             211.00,497.00 226.00,482.00 226.00,482.00
             226.00,482.00 281.00,427.00 281.00,427.00
             281.00,427.00 474.00,234.00 474.00,234.00
             474.00,234.00 535.00,173.00 535.00,173.00
             535.00,173.00 549.00,159.04 549.00,159.04
             551.12,157.06 553.80,154.32 557.00,154.96
             560.57,155.68 569.08,165.08 572.00,168.00
             572.00,168.00 607.00,203.00 607.00,203.00
             607.00,203.00 727.00,323.00 727.00,323.00
             727.00,323.00 760.00,356.00 760.00,356.00
             762.81,358.81 771.43,366.62 772.29,370.00
             773.30,373.89 769.42,377.49 766.98,380.00
             761.95,385.19 748.49,398.07 743.00,402.00 Z
           M 976.00,485.46
           C 984.22,485.04 998.88,486.73 1007.00,488.65
             1017.26,491.08 1024.75,494.27 1034.00,499.23
             1067.06,516.97 1085.94,550.13 1093.00,586.00
             1094.50,593.65 1095.99,603.26 1096.00,611.00
             1096.00,611.00 1096.00,637.00 1096.00,637.00
             1095.66,665.74 1082.53,701.35 1063.71,723.00
             1048.10,740.96 1024.55,754.60 1001.00,758.57
             990.37,760.35 979.75,760.12 969.00,760.00
             960.29,759.89 947.32,757.07 939.00,754.33
             897.52,740.66 871.45,702.42 863.00,661.00
             859.28,642.72 859.79,626.50 860.00,608.00
             860.19,591.87 866.59,567.66 873.31,553.00
             886.63,523.90 910.21,500.62 941.00,490.75
             946.24,489.06 958.58,486.46 964.00,486.09
             964.00,486.09 976.00,485.46 976.00,485.46 Z
           M 1205.00,539.00
           C 1207.95,532.39 1211.52,527.62 1216.00,522.00
             1234.52,498.77 1264.41,485.34 1294.00,485.34
             1294.00,485.34 1301.00,486.06 1301.00,486.06
             1301.00,486.06 1309.00,486.06 1309.00,486.06
             1333.13,488.50 1357.71,501.32 1369.69,523.00
             1386.97,554.28 1384.00,582.82 1384.00,617.00
             1384.00,617.00 1384.00,755.00 1384.00,755.00
             1384.00,755.00 1354.00,755.00 1354.00,755.00
             1354.00,755.00 1354.00,585.00 1354.00,585.00
             1353.97,567.31 1349.03,544.37 1336.83,531.01
             1324.30,517.31 1305.06,511.92 1287.00,512.00
             1258.94,512.12 1231.65,528.96 1216.36,552.00
             1210.29,561.14 1205.02,570.84 1205.00,582.00
             1205.00,582.00 1205.00,755.00 1205.00,755.00
             1205.00,755.00 1175.00,755.00 1175.00,755.00
             1175.00,755.00 1175.00,490.00 1175.00,490.00
             1175.00,490.00 1203.00,490.00 1203.00,490.00
             1203.00,490.00 1203.00,512.00 1203.00,512.00
             1203.00,512.00 1204.00,527.00 1204.00,527.00
             1204.00,527.00 1205.00,539.00 1205.00,539.00 Z
           M 966.00,512.14
           C 958.80,513.48 951.60,515.07 945.00,518.26
             938.07,521.60 931.88,525.27 926.00,530.30
             903.23,549.79 890.05,584.31 890.00,614.00
             890.00,614.00 890.00,634.00 890.00,634.00
             890.12,644.16 893.04,658.18 895.86,668.00
             905.46,701.38 934.07,733.56 971.00,734.00
             971.00,734.00 983.00,734.00 983.00,734.00
             1023.75,733.94 1050.53,701.48 1061.00,665.00
             1066.28,646.60 1066.22,631.81 1066.00,613.00
             1065.92,606.61 1064.48,597.33 1063.20,591.00
             1056.50,558.00 1037.48,526.70 1004.00,515.67
             996.43,513.18 989.97,512.01 982.00,512.14
             982.00,512.14 966.00,512.14 966.00,512.14 Z
           M 1826.00,893.00
           C 1826.00,893.00 1857.00,893.00 1857.00,893.00
             1857.00,893.00 1857.00,1268.00 1857.00,1268.00
             1857.00,1268.00 1828.00,1268.00 1828.00,1268.00
             1828.00,1258.24 1829.02,1246.15 1826.00,1237.00
             1819.32,1249.44 1801.93,1260.43 1789.00,1265.60
             1770.38,1273.05 1759.52,1273.22 1740.00,1273.00
             1713.56,1272.69 1687.55,1256.62 1671.90,1236.00
             1642.36,1197.08 1636.85,1134.41 1648.13,1088.00
             1652.25,1071.06 1658.36,1054.38 1668.44,1040.00
             1678.81,1025.21 1692.27,1013.04 1709.00,1005.87
             1721.57,1000.49 1729.74,999.76 1743.00,998.71
             1743.00,998.71 1750.00,998.71 1750.00,998.71
             1758.10,999.03 1765.00,999.38 1773.00,1001.23
             1794.29,1006.18 1813.39,1019.27 1826.00,1037.00
             1826.00,1037.00 1826.00,893.00 1826.00,893.00 Z
           M 1153.00,998.46
           C 1161.22,998.04 1175.88,999.73 1184.00,1001.65
             1194.26,1004.08 1201.75,1007.27 1211.00,1012.23
             1244.06,1029.97 1262.94,1063.13 1270.00,1099.00
             1271.50,1106.65 1272.99,1116.26 1273.00,1124.00
             1273.00,1124.00 1273.00,1150.00 1273.00,1150.00
             1272.66,1178.74 1259.53,1214.35 1240.71,1236.00
             1225.10,1253.96 1201.55,1267.60 1178.00,1271.57
             1167.37,1273.35 1156.75,1273.12 1146.00,1273.00
             1137.29,1272.89 1124.32,1270.07 1116.00,1267.33
             1074.52,1253.66 1048.45,1215.42 1040.00,1174.00
             1036.28,1155.72 1036.79,1139.50 1037.00,1121.00
             1037.19,1104.87 1043.59,1080.66 1050.31,1066.00
             1063.63,1036.90 1087.21,1013.62 1118.00,1003.75
             1123.24,1002.06 1135.58,999.46 1141.00,999.09
             1141.00,999.09 1153.00,998.46 1153.00,998.46 Z
           M 1424.00,1053.00
           C 1427.44,1045.94 1431.63,1040.80 1436.85,1035.01
             1457.49,1012.13 1487.33,999.36 1518.00,999.00
             1518.00,999.00 1529.00,998.32 1529.00,998.32
             1529.00,998.32 1555.00,1000.75 1555.00,1000.75
             1557.89,1001.23 1565.32,1001.96 1566.81,1004.51
             1567.97,1006.27 1567.03,1010.92 1566.81,1013.00
             1566.81,1013.00 1564.00,1033.00 1564.00,1033.00
             1564.00,1033.00 1524.00,1028.09 1524.00,1028.09
             1524.00,1028.09 1513.00,1028.96 1513.00,1028.96
             1478.85,1030.50 1449.59,1045.46 1432.59,1076.00
             1427.36,1085.41 1423.02,1096.15 1423.00,1107.00
             1423.00,1107.00 1423.00,1243.00 1423.00,1243.00
             1423.00,1243.00 1424.00,1258.00 1424.00,1258.00
             1424.00,1258.00 1424.00,1268.00 1424.00,1268.00
             1424.00,1268.00 1392.00,1268.00 1392.00,1268.00
             1392.00,1268.00 1392.00,1003.00 1392.00,1003.00
             1392.00,1003.00 1421.00,1003.00 1421.00,1003.00
             1421.00,1003.00 1421.96,1013.00 1421.96,1013.00
             1421.96,1013.00 1421.96,1027.00 1421.96,1027.00
             1421.96,1027.00 1423.00,1041.00 1423.00,1041.00
             1423.00,1041.00 1424.00,1053.00 1424.00,1053.00 Z
           M 1143.00,1025.14
           C 1135.80,1026.48 1128.60,1028.07 1122.00,1031.26
             1115.07,1034.60 1108.88,1038.27 1103.00,1043.30
             1080.23,1062.79 1067.05,1097.31 1067.00,1127.00
             1067.00,1127.00 1067.00,1147.00 1067.00,1147.00
             1067.12,1157.16 1070.04,1171.18 1072.86,1181.00
             1082.46,1214.38 1111.07,1246.56 1148.00,1247.00
             1148.00,1247.00 1160.00,1247.00 1160.00,1247.00
             1200.75,1246.94 1227.53,1214.48 1238.00,1178.00
             1243.28,1159.60 1243.22,1144.81 1243.00,1126.00
             1242.92,1119.61 1241.48,1110.33 1240.20,1104.00
             1233.50,1071.00 1214.48,1039.70 1181.00,1028.67
             1173.43,1026.18 1166.97,1025.01 1159.00,1025.14
             1159.00,1025.14 1143.00,1025.14 1143.00,1025.14 Z
           M 1748.00,1025.28
           C 1735.12,1027.14 1728.83,1027.38 1717.00,1034.23
             1685.69,1052.38 1676.22,1089.46 1673.91,1123.00
             1673.91,1123.00 1673.00,1134.00 1673.00,1134.00
             1672.95,1144.28 1674.39,1160.94 1676.40,1171.00
             1682.31,1200.55 1695.13,1229.45 1725.00,1241.55
             1733.40,1244.95 1742.97,1246.40 1752.00,1246.91
             1755.77,1247.12 1757.49,1246.54 1761.00,1246.16
             1781.48,1243.97 1798.54,1237.43 1812.91,1222.00
             1816.80,1217.82 1824.38,1207.49 1825.84,1202.00
             1826.07,1199.95 1826.00,1197.13 1825.84,1195.00
             1825.84,1195.00 1825.84,1138.00 1825.84,1138.00
             1825.84,1138.00 1825.84,1081.00 1825.84,1081.00
             1826.00,1078.81 1826.07,1076.12 1825.84,1074.00
             1824.13,1067.14 1815.80,1055.08 1810.96,1050.00
             1794.72,1032.96 1771.72,1023.08 1748.00,1025.28 Z" />
</svg>
